<?xml version="1.0" encoding="UTF-8" standalone="no"?>
<!DOCTYPE svg PUBLIC "-//W3C//DTD SVG 1.1//EN" "http://www.w3.org/Graphics/SVG/1.1/DTD/svg11.dtd">
<svg width="100%" height="100%" viewBox="0 0 32 32" version="1.1" xmlns="http://www.w3.org/2000/svg" xmlns:xlink="http://www.w3.org/1999/xlink" xml:space="preserve" xmlns:serif="http://www.serif.com/" style="fill-rule:evenodd;clip-rule:evenodd;stroke-linecap:round;stroke-linejoin:round;stroke-miterlimit:1.5;">
    <g transform="matrix(1,0,0,1,6,5)">
        <path d="M2.5,25L8.5,5L10.5,5L16.5,25L14.074,25L10,11L8.981,11L5.075,25L2.5,25Z" style="fill:rgb(0,167,0);stroke:black;stroke-opacity:0;stroke-width:1px;"/>
    </g>
    <g transform="matrix(1,0,0,1,1,1)">
        <circle cx="14.5" cy="7.5" r="3.5" style="fill:rgb(0,167,0);"/>
    </g>
    <g>
        <g transform="matrix(1.07692,0,0,1.07692,-1.19231,2.56107)">
            <path d="M21.048,7.548L19.899,6.399C20.204,6.094 20.375,5.681 20.375,5.25C20.375,4.819 20.204,4.406 19.899,4.101L21.048,2.952C21.658,3.561 22,4.388 22,5.25C22,6.112 21.658,6.939 21.048,7.548Z" style="fill:rgb(0,167,0);"/>
        </g>
        <g transform="matrix(2.15385,0,0,2.15385,-21.5071,-3.09278)">
            <path d="M21.048,7.548L20.345,6.845C20.768,6.422 21.006,5.848 21.006,5.25C21.006,4.652 20.768,4.078 20.345,3.655L21.048,2.952C21.658,3.561 22,4.388 22,5.25C22,6.112 21.658,6.939 21.048,7.548Z" style="fill:rgb(0,167,0);"/>
        </g>
        <g transform="matrix(3.23077,0,0,3.23077,-41.0015,-8.74662)">
            <path d="M21.048,7.548L20.547,7.047C21.023,6.57 21.291,5.924 21.291,5.25C21.291,4.576 21.023,3.93 20.547,3.453L21.048,2.952C21.658,3.561 22,4.388 22,5.25C22,6.112 21.658,6.939 21.048,7.548Z" style="fill:rgb(0,167,0);"/>
        </g>
    </g>
    <g>
        <g transform="matrix(-1.07692,0,0,1.07692,32.5051,2.92153)">
            <path d="M21.048,7.548L19.899,6.399C20.204,6.094 20.375,5.681 20.375,5.25C20.375,4.819 20.204,4.406 19.899,4.101L21.048,2.952C21.658,3.561 22,4.388 22,5.25C22,6.112 21.658,6.939 21.048,7.548Z" style="fill:rgb(0,167,0);"/>
        </g>
        <g transform="matrix(-2.15385,0,0,2.15385,52.8199,-2.73231)">
            <path d="M21.048,7.548L20.345,6.845C20.768,6.422 21.006,5.848 21.006,5.25C21.006,4.652 20.768,4.078 20.345,3.655L21.048,2.952C21.658,3.561 22,4.388 22,5.25C22,6.112 21.658,6.939 21.048,7.548Z" style="fill:rgb(0,167,0);"/>
        </g>
        <g transform="matrix(-3.23077,0,0,3.23077,72.3144,-8.38616)">
            <path d="M21.048,7.548L20.547,7.047C21.023,6.57 21.291,5.924 21.291,5.25C21.291,4.576 21.023,3.93 20.547,3.453L21.048,2.952C21.658,3.561 22,4.388 22,5.25C22,6.112 21.658,6.939 21.048,7.548Z" style="fill:rgb(0,167,0);"/>
        </g>
    </g>
    <path d="M13,21L12,23L19,23L19,21L13,21Z" style="fill:rgb(0,167,0);stroke:black;stroke-opacity:0;stroke-width:1px;"/>
    <rect x="11.075" y="26" width="8.925" height="2" style="fill:rgb(0,167,0);"/>
</svg>
