<?xml version="1.0" encoding="UTF-8" standalone="no"?>
<!DOCTYPE svg PUBLIC "-//W3C//DTD SVG 1.1//EN" "http://www.w3.org/Graphics/SVG/1.1/DTD/svg11.dtd">
<svg width="100%" height="100%" viewBox="0 0 32 48" version="1.1" xmlns="http://www.w3.org/2000/svg" xmlns:xlink="http://www.w3.org/1999/xlink" xml:space="preserve" xmlns:serif="http://www.serif.com/" style="fill-rule:evenodd;clip-rule:evenodd;stroke-linecap:round;stroke-linejoin:round;stroke-miterlimit:1.5;">
    <g transform="matrix(1,0,0,1,-2,0.1)">
        <g id="s0" transform="matrix(1.11765,0,0,1,-1.32353,1)">
            <path d="M7,3L8.789,1L22.211,1L24,3L22.211,5L8.789,5L7,3Z" style="fill:rgb(161,255,0);stroke:black;stroke-opacity:0;stroke-width:0.94px;"/>
        </g>
        <g id="s3" transform="matrix(1.11765,0,0,1,-1.32353,21.05)">
            <path d="M7,3L8.789,1L22.211,1L24,3L22.211,5L8.789,5L7,3Z" style="fill:rgb(161,255,0);stroke:black;stroke-opacity:0;stroke-width:0.94px;"/>
        </g>
        <g id="s6" transform="matrix(1.11765,0,0,1,-1.32353,40.8)">
            <path d="M7,3L8.789,1L22.211,1L24,3L22.211,5L8.789,5L7,3Z" style="fill:rgb(161,255,0);stroke:black;stroke-opacity:0;stroke-width:0.94px;"/>
        </g>
        <g id="s2" transform="matrix(6.93889e-17,-1.11765,1,5.55112e-17,23,31.3235)">
            <path d="M7,3L8.789,1L22.211,1L24,3L22.211,5L8.789,5L7,3Z" style="fill:rgb(161,255,0);stroke:black;stroke-opacity:0;stroke-width:0.94px;"/>
        </g>
        <g id="s1" transform="matrix(6.93889e-17,-1.11765,1,5.55112e-17,3,31.3235)">
            <path d="M7,3L8.789,1L22.211,1L24,3L22.211,5L8.789,5L7,3Z" style="fill:rgb(161,255,0);stroke:black;stroke-opacity:0;stroke-width:0.94px;"/>
        </g>
        <g id="s5" transform="matrix(6.93889e-17,-1.11765,1,5.55112e-17,23,51.3235)">
            <path d="M7,3L8.789,1L22.211,1L24,3L22.211,5L8.789,5L7,3Z" style="fill:rgb(161,255,0);stroke:black;stroke-opacity:0;stroke-width:0.94px;"/>
        </g>
        <g id="s4" transform="matrix(6.93889e-17,-1.11765,1,5.55112e-17,3,51.3235)">
            <path d="M7,3L8.789,1L22.211,1L24,3L22.211,5L8.789,5L7,3Z" style="fill:rgb(161,255,0);stroke:black;stroke-opacity:0;stroke-width:0.94px;"/>
        </g>
    </g>
    <g id="decimal" transform="matrix(0.75,0,0,0.882353,6.75,4.42941)">
        <ellipse cx="29" cy="45.3" rx="2" ry="1.7" style="fill:rgb(161,255,0);"/>
    </g>
</svg>
